<svg width="25" height="25" viewBox="0 0 25 25" fill="none" xmlns="http://www.w3.org/2000/svg">
<g clip-path="url(#clip0)">
<path d="M9 8.5L12.5 1.5L16 8.5L23.5 9.5L18 15L19.5 22.5L12.5 19L5.5 22.5L7 15L1.5 9.5L9 8.5Z" fill="black"/>
<path d="M5.59553 23.9581C5.32163 23.9581 5.04963 23.8726 4.8175 23.7048C4.3851 23.3914 4.1831 22.8527 4.30079 22.333L5.90911 15.2483L0.454713 10.4649C0.0537783 10.1149 -0.0993857 9.56064 0.0652228 9.05346C0.229831 8.54724 0.677688 8.18884 1.20794 8.13982L8.42478 7.48463L11.2781 0.807401C11.4884 0.316819 11.9676 0 12.4999 0C13.0323 0 13.5114 0.316819 13.7218 0.806257L16.5751 7.48463L23.7908 8.13982C24.3222 8.18769 24.77 8.54724 24.9346 9.05346C25.0992 9.55969 24.947 10.1149 24.5461 10.4649L19.0917 15.2474L20.7 22.3318C20.8179 22.8527 20.6157 23.3914 20.1835 23.7038C19.7522 24.0162 19.1772 24.0403 18.723 23.7673L12.4999 20.0485L6.27685 23.7694C6.06647 23.8943 5.83205 23.9581 5.59553 23.9581ZM12.4999 18.4464C12.7364 18.4464 12.9707 18.51 13.1813 18.6349L19.0543 22.1476L17.5364 15.4608C17.4281 14.9849 17.5896 14.488 17.9574 14.166L23.1075 9.64933L16.2937 9.03057C15.8032 8.98575 15.3812 8.67732 15.1896 8.22527L12.4999 1.92399L9.80707 8.22622C9.61747 8.67522 9.19555 8.98365 8.70612 9.02847L1.89137 9.64723L7.04134 14.164C7.41023 14.4869 7.5716 14.9828 7.4623 15.4598L5.94554 22.1464L11.8186 18.6349C12.029 18.51 12.2634 18.4464 12.4999 18.4464Z" fill="black"/>
</g>
<defs>
<clipPath id="clip0">
<rect width="25" height="25" fill="white"/>
</clipPath>
</defs>
</svg>
