<svg width="122" height="122" viewBox="0 0 122 122" fill="none" xmlns="http://www.w3.org/2000/svg">
<g filter="url(#filter0_i)">
<ellipse cx="70.0908" cy="46.8829" rx="5.45455" ry="5.29412" fill="#F2AFD0"/>
</g>
<g filter="url(#filter1_i)">
<ellipse cx="79.1818" cy="61.0004" rx="5.45455" ry="5.29412" fill="#F2AFD0"/>
</g>
<g filter="url(#filter2_i)">
<ellipse cx="70.0908" cy="75.1181" rx="5.45455" ry="5.29412" fill="#F2AFD0"/>
</g>
<g filter="url(#filter3_i)">
<ellipse cx="51.9091" cy="75.1181" rx="5.45455" ry="5.29412" fill="#F2AFD0"/>
</g>
<g filter="url(#filter4_i)">
<ellipse cx="42.8183" cy="61.0004" rx="5.45455" ry="5.29412" fill="#F2AFD0"/>
</g>
<g filter="url(#filter5_i)">
<ellipse cx="51.9091" cy="46.8829" rx="5.45455" ry="5.29412" fill="#F2AFD0"/>
</g>
<path d="M117.347 39.4194C117.395 46.1601 111.776 51.842 104.572 51.8936C97.3688 51.9452 91.6686 46.3444 91.6203 39.6037C91.572 32.863 97.1914 27.1811 104.395 27.1295C111.598 27.0779 117.299 32.6788 117.347 39.4194Z" stroke="#F5E1FD" stroke-width="7"/>
<path d="M117.65 81.7713C117.699 88.512 112.079 94.1939 104.876 94.2455C97.6723 94.2971 91.972 88.6963 91.9237 81.9556C91.8755 75.215 97.4949 69.533 104.698 69.4814C111.902 69.4298 117.602 75.0307 117.65 81.7713Z" stroke="#F5E1FD" stroke-width="7"/>
<path d="M74.1792 105.024C74.2274 111.765 68.608 117.447 61.4046 117.499C54.2011 117.55 48.5008 111.949 48.4525 105.209C48.4043 98.468 54.0237 92.7861 61.2272 92.7345C68.4306 92.6829 74.1309 98.2837 74.1792 105.024Z" stroke="#F5E1FD" stroke-width="7"/>
<path d="M30.3798 82.3965C30.4281 89.1371 24.8087 94.819 17.6052 94.8706C10.4018 94.9222 4.70152 89.3214 4.65323 82.5808C4.60494 75.8401 10.2244 70.1582 17.4278 70.1066C24.6313 70.055 30.3316 75.6558 30.3798 82.3965Z" stroke="#F5E1FD" stroke-width="7"/>
<path d="M30.0764 40.0445C30.1247 46.7852 24.5052 52.4671 17.3018 52.5187C10.0983 52.5703 4.39805 46.9695 4.34976 40.2288C4.30148 33.4882 9.92094 27.8062 17.1244 27.7546C24.3278 27.703 30.0281 33.3039 30.0764 40.0445Z" stroke="#F5E1FD" stroke-width="7"/>
<path d="M73.5471 16.7914C73.5954 23.532 67.9759 29.2139 60.7725 29.2655C53.569 29.3171 47.8688 23.7163 47.8205 16.9756C47.7722 10.235 53.3916 4.55307 60.5951 4.50147C67.7985 4.44987 73.4988 10.0507 73.5471 16.7914Z" stroke="#F5E1FD" stroke-width="7"/>
<defs>
<filter id="filter0_i" x="64.6362" y="41.5887" width="10.9091" height="14.5882" filterUnits="userSpaceOnUse" color-interpolation-filters="sRGB">
<feFlood flood-opacity="0" result="BackgroundImageFix"/>
<feBlend mode="normal" in="SourceGraphic" in2="BackgroundImageFix" result="shape"/>
<feColorMatrix in="SourceAlpha" type="matrix" values="0 0 0 0 0 0 0 0 0 0 0 0 0 0 0 0 0 0 127 0" result="hardAlpha"/>
<feOffset dy="4"/>
<feGaussianBlur stdDeviation="2"/>
<feComposite in2="hardAlpha" operator="arithmetic" k2="-1" k3="1"/>
<feColorMatrix type="matrix" values="0 0 0 0 0 0 0 0 0 0 0 0 0 0 0 0 0 0 0.05 0"/>
<feBlend mode="normal" in2="shape" result="effect1_innerShadow"/>
</filter>
<filter id="filter1_i" x="73.7273" y="55.7063" width="10.9091" height="14.5882" filterUnits="userSpaceOnUse" color-interpolation-filters="sRGB">
<feFlood flood-opacity="0" result="BackgroundImageFix"/>
<feBlend mode="normal" in="SourceGraphic" in2="BackgroundImageFix" result="shape"/>
<feColorMatrix in="SourceAlpha" type="matrix" values="0 0 0 0 0 0 0 0 0 0 0 0 0 0 0 0 0 0 127 0" result="hardAlpha"/>
<feOffset dy="4"/>
<feGaussianBlur stdDeviation="2"/>
<feComposite in2="hardAlpha" operator="arithmetic" k2="-1" k3="1"/>
<feColorMatrix type="matrix" values="0 0 0 0 0 0 0 0 0 0 0 0 0 0 0 0 0 0 0.05 0"/>
<feBlend mode="normal" in2="shape" result="effect1_innerShadow"/>
</filter>
<filter id="filter2_i" x="64.6362" y="69.824" width="10.9091" height="14.5882" filterUnits="userSpaceOnUse" color-interpolation-filters="sRGB">
<feFlood flood-opacity="0" result="BackgroundImageFix"/>
<feBlend mode="normal" in="SourceGraphic" in2="BackgroundImageFix" result="shape"/>
<feColorMatrix in="SourceAlpha" type="matrix" values="0 0 0 0 0 0 0 0 0 0 0 0 0 0 0 0 0 0 127 0" result="hardAlpha"/>
<feOffset dy="4"/>
<feGaussianBlur stdDeviation="2"/>
<feComposite in2="hardAlpha" operator="arithmetic" k2="-1" k3="1"/>
<feColorMatrix type="matrix" values="0 0 0 0 0 0 0 0 0 0 0 0 0 0 0 0 0 0 0.05 0"/>
<feBlend mode="normal" in2="shape" result="effect1_innerShadow"/>
</filter>
<filter id="filter3_i" x="46.4546" y="69.824" width="10.9091" height="14.5882" filterUnits="userSpaceOnUse" color-interpolation-filters="sRGB">
<feFlood flood-opacity="0" result="BackgroundImageFix"/>
<feBlend mode="normal" in="SourceGraphic" in2="BackgroundImageFix" result="shape"/>
<feColorMatrix in="SourceAlpha" type="matrix" values="0 0 0 0 0 0 0 0 0 0 0 0 0 0 0 0 0 0 127 0" result="hardAlpha"/>
<feOffset dy="4"/>
<feGaussianBlur stdDeviation="2"/>
<feComposite in2="hardAlpha" operator="arithmetic" k2="-1" k3="1"/>
<feColorMatrix type="matrix" values="0 0 0 0 0 0 0 0 0 0 0 0 0 0 0 0 0 0 0.05 0"/>
<feBlend mode="normal" in2="shape" result="effect1_innerShadow"/>
</filter>
<filter id="filter4_i" x="37.3638" y="55.7063" width="10.9091" height="14.5882" filterUnits="userSpaceOnUse" color-interpolation-filters="sRGB">
<feFlood flood-opacity="0" result="BackgroundImageFix"/>
<feBlend mode="normal" in="SourceGraphic" in2="BackgroundImageFix" result="shape"/>
<feColorMatrix in="SourceAlpha" type="matrix" values="0 0 0 0 0 0 0 0 0 0 0 0 0 0 0 0 0 0 127 0" result="hardAlpha"/>
<feOffset dy="4"/>
<feGaussianBlur stdDeviation="2"/>
<feComposite in2="hardAlpha" operator="arithmetic" k2="-1" k3="1"/>
<feColorMatrix type="matrix" values="0 0 0 0 0 0 0 0 0 0 0 0 0 0 0 0 0 0 0.05 0"/>
<feBlend mode="normal" in2="shape" result="effect1_innerShadow"/>
</filter>
<filter id="filter5_i" x="46.4546" y="41.5887" width="10.9091" height="14.5882" filterUnits="userSpaceOnUse" color-interpolation-filters="sRGB">
<feFlood flood-opacity="0" result="BackgroundImageFix"/>
<feBlend mode="normal" in="SourceGraphic" in2="BackgroundImageFix" result="shape"/>
<feColorMatrix in="SourceAlpha" type="matrix" values="0 0 0 0 0 0 0 0 0 0 0 0 0 0 0 0 0 0 127 0" result="hardAlpha"/>
<feOffset dy="4"/>
<feGaussianBlur stdDeviation="2"/>
<feComposite in2="hardAlpha" operator="arithmetic" k2="-1" k3="1"/>
<feColorMatrix type="matrix" values="0 0 0 0 0 0 0 0 0 0 0 0 0 0 0 0 0 0 0.05 0"/>
<feBlend mode="normal" in2="shape" result="effect1_innerShadow"/>
</filter>
</defs>
</svg>
