<svg width="414" height="249" viewBox="0 0 414 249" fill="none" xmlns="http://www.w3.org/2000/svg">
<g clip-path="url(#clip0)">
<path d="M1300 36.9999C1284 40.4999 1184.94 159.03 1117.5 120C1000 51.9999 995.001 91.5003 837.501 169.5C680.001 247.5 573 33.4999 429.5 75.4999C286 117.5 185.365 -56.4527 -23.5 21.4998C-199 86.9998 -90.6252 16.5941 -207.501 -36.0002C-377.501 -112.5 -435.501 -8.00019 -478.501 21.4998C-582.091 92.5668 -420.499 249 -420.499 249H1235.5L1300 36.9999Z" fill="#E6C5F4" fill-opacity="0.8"/>
<path d="M-460.583 21.9999C-267.084 2.0679 -243 -147.5 -117 -120.5C9 -93.5 -100.583 238 53.9169 121C208.417 3.99997 338.5 -41.5 383 97.5C427.5 236.5 584 168.5 717.5 97.5C851 26.4998 886.571 197.908 1063 181C1183 169.5 1239.5 20.9998 1413 145.5C1488.75 199.854 1232.12 266.526 1232.12 266.526H-423.88C-423.88 266.526 -654.083 41.9319 -460.583 21.9999Z" fill="#F5E1FD"/>
</g>
<defs>
<clipPath id="clip0">
<rect width="414" height="249" fill="white"/>
</clipPath>
</defs>
</svg>
