<svg width="1035" height="357" viewBox="0 0 1035 357" fill="none" xmlns="http://www.w3.org/2000/svg">
<g clip-path="url(#clip0)">
<path d="M1714.38 144C1698.38 147.5 1599.32 266.03 1531.88 227C1414.38 159 1250.5 327.5 1103 252.5C955.5 177.5 949.5 162 834.5 204.5C719.5 247 599.745 50.5473 390.88 128.5C215.38 194 323.755 123.594 206.879 70.9998C36.8789 -5.50021 -21.1211 98.9998 -64.1211 128.5C-167.71 199.567 -6.11865 356 -6.11865 356H1649.88L1714.38 144Z" fill="#F2AFD0" fill-opacity="0.8"/>
<path d="M-21.2025 126.749C172.297 106.817 181.5 -22.5 307.5 4.5C433.5 31.5 391 238 542.5 171C694 104 768.5 94.751 830 202C891.5 309.249 1000 260 1084.5 209.5C1169 159 1325.95 302.657 1502.38 285.749C1622.38 274.249 1678.88 125.749 1852.38 250.249C1928.13 304.603 1671.5 371.275 1671.5 371.275H15.5008C15.5008 371.275 -214.702 146.681 -21.2025 126.749Z" fill="#FFCAE3"/>
</g>
<defs>
<clipPath id="clip0">
<rect width="1035" height="357" fill="white"/>
</clipPath>
</defs>
</svg>
