<svg width="14" height="14" viewBox="0 0 14 14" fill="none" xmlns="http://www.w3.org/2000/svg">
<g clip-path="url(#clip0)">
<path d="M11.7046 5.03975C11.2865 4.142 10.7026 3.26634 9.96906 2.43714C9.81536 2.26331 9.55007 2.25278 9.3827 2.40903L7.45264 4.21041V0.43795C7.45264 0.122156 7.07188 -0.113794 6.78674 0.0586911C5.2192 1.00686 3.31512 2.90879 2.33999 4.93964C1.786 6.09336 1.50513 7.28908 1.50513 8.4936C1.5051 11.5301 3.96951 14.0005 6.99868 14.0005C10.8047 14.0005 14.0449 10.0654 11.7046 5.03975ZM5.7313 11.9077C5.7313 10.8467 6.58557 10.0679 6.99933 9.75292C7.41127 10.0875 8.26603 10.9028 8.26603 11.9077C8.26603 12.6083 7.6975 13.1782 6.99865 13.1782C6.2998 13.1782 5.7313 12.6083 5.7313 11.9077ZM8.89874 12.7731C9.52584 11.3951 8.48815 9.72956 7.23397 8.9025C7.10261 8.81593 6.93352 8.81215 6.79841 8.89293C5.49168 9.67449 4.47023 11.3923 5.09859 12.7731C3.46603 12.0419 2.32541 10.3989 2.32541 8.49362C2.32541 5.51214 4.26709 2.91554 6.63233 1.1619V5.15506C6.63233 5.51337 7.06004 5.7004 7.32199 5.45597L9.62885 3.3029C10.9849 4.94746 11.6719 6.69191 11.6719 8.49365C11.6719 10.3989 10.5313 12.0419 8.89874 12.7731Z" fill="#888691"/>
</g>
<defs>
<clipPath id="clip0">
<rect width="14" height="14" fill="white"/>
</clipPath>
</defs>
</svg>
