<svg width="14" height="16" viewBox="0 0 14 16" fill="none" xmlns="http://www.w3.org/2000/svg">
<path d="M3.0402 2.89543C4.09041 1.89524 5.51479 1.33333 7 1.33333C8.48521 1.33333 9.90959 1.89524 10.9598 2.89543C12.01 3.89562 12.6 5.25218 12.6 6.66667C12.6 8.73204 11.189 10.7362 9.64183 12.2915C8.88257 13.0548 8.12093 13.6796 7.54833 14.1139C7.33522 14.2755 7.14908 14.4101 7 14.5151C6.85092 14.4101 6.66478 14.2755 6.45167 14.1139C5.87907 13.6796 5.11743 13.0548 4.35817 12.2915C2.81102 10.7362 1.4 8.73204 1.4 6.66667C1.4 5.25218 1.99 3.89562 3.0402 2.89543ZM6.61133 15.8878C6.61153 15.8879 6.61171 15.888 7 15.3333L6.61171 15.888C6.84684 16.0373 7.15316 16.0373 7.38829 15.888L7 15.3333C7.38829 15.888 7.38847 15.8879 7.38867 15.8878L7.38919 15.8875L7.39067 15.8865L7.39533 15.8835L7.41138 15.8732C7.42501 15.8644 7.44445 15.8517 7.46931 15.8353C7.51903 15.8025 7.59048 15.7548 7.68055 15.6928C7.86062 15.5689 8.11555 15.3881 8.42042 15.1569C9.02907 14.6954 9.84243 14.0286 10.6582 13.2085C12.261 11.5972 14 9.26796 14 6.66667C14 4.89856 13.2625 3.20286 11.9497 1.95262C10.637 0.702379 8.85651 0 7 0C5.14348 0 3.36301 0.702379 2.05025 1.95262C0.737498 3.20286 0 4.89856 0 6.66667C0 9.26796 1.73898 11.5972 3.34183 13.2085C4.15757 14.0286 4.97093 14.6954 5.57958 15.1569C5.88445 15.3881 6.13938 15.5689 6.31945 15.6928C6.40952 15.7548 6.48097 15.8025 6.53069 15.8353C6.55555 15.8517 6.57499 15.8644 6.58862 15.8732L6.60467 15.8835L6.60933 15.8865L6.61081 15.8875L6.61133 15.8878ZM5.6 6.66667C5.6 5.93029 6.2268 5.33333 7 5.33333C7.7732 5.33333 8.4 5.93029 8.4 6.66667C8.4 7.40305 7.7732 8 7 8C6.2268 8 5.6 7.40305 5.6 6.66667ZM7 4C5.4536 4 4.2 5.19391 4.2 6.66667C4.2 8.13943 5.4536 9.33333 7 9.33333C8.5464 9.33333 9.8 8.13943 9.8 6.66667C9.8 5.19391 8.5464 4 7 4Z" fill="#213E4F"/>
</svg>
