<svg width="15" height="15" viewBox="0 0 15 15" fill="none" xmlns="http://www.w3.org/2000/svg">
<path d="M13.8407 1.15906C13.0938 0.411644 12.1001 0 11.0432 0C9.98623 0 8.99288 0.411644 8.24558 1.15906L4.70226 4.70226L1.15883 8.24593C0.411644 8.99334 0 9.98703 0 11.0437C0 12.1003 0.411644 13.094 1.15883 13.8409C1.90578 14.5884 2.89948 15 3.95634 15C5.0132 15 6.00666 14.5884 6.75385 13.8409L10.2973 10.2977L13.8407 6.75407C14.5879 6.00666 14.9994 5.01297 14.9994 3.95634C14.9994 2.8997 14.5879 1.90601 13.8407 1.15906ZM6.00792 13.095C5.45975 13.6431 4.7311 13.9451 3.95634 13.9451C3.18123 13.9451 2.45281 13.6432 1.90475 13.095C1.3567 12.5468 1.05503 11.8185 1.05503 11.0438C1.05503 10.269 1.35693 9.54002 1.90475 8.99197L5.07523 5.82127L9.17839 9.92489L6.00792 13.095ZM13.0948 6.00815L9.92432 9.17885L5.82115 5.07523L8.99162 1.90498C9.53968 1.35693 10.2683 1.05492 11.0432 1.05492C11.8182 1.05492 12.5466 1.35681 13.0947 1.90498C13.6427 2.45316 13.9444 3.18146 13.9444 3.95622C13.9444 4.73099 13.6426 5.45998 13.0948 6.00815Z" fill="#213E4F"/>
<path d="M12.4537 3.55705C12.2855 3.55705 12.1201 3.47672 12.0179 3.32783C11.7711 2.96722 11.3639 2.75242 10.9283 2.75242C10.576 2.75242 10.245 2.8894 9.99564 3.13877C9.78953 3.34476 9.4557 3.34476 9.24971 3.13877C9.04372 2.93266 9.04372 2.59884 9.24971 2.39285C9.6982 1.94412 10.2942 1.69739 10.9283 1.69739C11.7121 1.69739 12.4449 2.08374 12.8885 2.73136C13.053 2.9718 12.9918 3.30002 12.7513 3.46493C12.6603 3.52718 12.5565 3.55705 12.4537 3.55705Z" fill="#213E4F"/>
</svg>
