<svg width="20" height="20" viewBox="0 0 20 20" fill="none" xmlns="http://www.w3.org/2000/svg">
<g clip-path="url(#clip0)">
<path d="M15.7142 10.4765L14.7618 10.4762C14.5862 10.4762 14.4443 10.3339 14.4443 10.1587C14.4443 9.98308 14.5866 9.84125 14.7618 9.84125L15.7142 9.84156C15.8898 9.84156 16.0316 9.98386 16.0316 10.159C16.0316 10.3346 15.8893 10.4765 15.7142 10.4765Z" fill="#DA4453"/>
<path d="M13.5917 6.88444C13.5105 6.88444 13.4291 6.85329 13.3673 6.79144C13.2431 6.66728 13.2431 6.46638 13.3673 6.34253L14.041 5.66948C14.1651 5.54531 14.3657 5.54531 14.4899 5.66948C14.614 5.79364 14.614 5.99453 14.4899 6.11839L13.8162 6.79144C13.7544 6.85329 13.673 6.88444 13.5917 6.88444Z" fill="#DA4453"/>
<path d="M10.0006 5.3962C9.82509 5.3962 9.68311 5.25421 9.68311 5.07874V4.12636C9.68311 3.95073 9.82509 3.8089 10.0006 3.8089C10.1762 3.8089 10.318 3.95073 10.318 4.12636V5.07874C10.318 5.25421 10.1762 5.3962 10.0006 5.3962Z" fill="#DA4453"/>
<path d="M6.40879 6.88384C6.32757 6.88384 6.24619 6.85268 6.18434 6.79083L5.51097 6.11747C5.38697 5.99331 5.38697 5.79272 5.51097 5.66856C5.63514 5.5444 5.83572 5.5444 5.95988 5.66856L6.63325 6.34193C6.75741 6.46609 6.75741 6.66667 6.63325 6.79083C6.57109 6.85268 6.48971 6.88384 6.40879 6.88384Z" fill="#DA4453"/>
<path d="M5.23804 10.4762H4.28597C4.1105 10.4762 3.96851 10.3343 3.96851 10.1587C3.96851 9.98308 4.1105 9.84125 4.28597 9.84125H5.23804C5.41366 9.84125 5.5555 9.98308 5.5555 10.1587C5.5555 10.3343 5.41366 10.4762 5.23804 10.4762Z" fill="#DA4453"/>
<path d="M9.04756 17.1429L9.99994 16.8254L10.9523 17.1429L11.5872 16.5079H12.8571C13.911 16.5079 14.7618 17.3622 14.7618 18.4127V19.3651C14.7618 19.7177 14.4793 20 14.1269 20H5.87296C5.52372 20 5.23804 19.7177 5.23804 19.3651V18.4127C5.23804 17.3622 6.08889 16.5079 7.1428 16.5079H8.41264L9.04756 17.1429Z" fill="#5D9CEC"/>
<path d="M12.8572 16.5079H11.5874C12.6413 16.5079 13.4922 17.3622 13.4922 18.4127V19.3651C13.4922 19.7177 13.2096 20 12.8572 20H14.1271C14.4794 20 14.762 19.7177 14.762 19.3651V18.4127C14.762 17.3622 13.9112 16.5079 12.8572 16.5079Z" fill="#4A89DC"/>
<path d="M9.9999 15.873C10.5713 15.873 11.111 15.7365 11.5872 15.4923V16.5079L10.9523 17.1429L9.9999 16.8254L9.04752 17.1429L8.4126 16.5079V15.4923C8.88879 15.7365 9.42853 15.873 9.9999 15.873Z" fill="#F5F7FA"/>
<path d="M13.4922 11.1111V12.3841C13.4922 13.7399 12.7176 14.9146 11.5874 15.4923C11.1112 15.7368 10.5715 15.873 10.0001 15.873C9.42875 15.873 8.88901 15.7365 8.41282 15.4923C7.28264 14.9146 6.50806 13.7399 6.50806 12.381V11.1111L7.46044 10.1588C7.46044 10.1588 8.64146 10.7937 10.0001 10.7937C11.362 10.7937 12.5398 10.1588 12.5398 10.1588L13.4922 11.1111Z" fill="#EAC6BB"/>
<path d="M12.5396 10.1588C12.5396 10.1588 12.4233 10.2212 12.2221 10.3077V12.3841C12.2221 13.7399 11.4475 14.9146 10.3174 15.4923C10.0224 15.6438 9.70121 15.7479 9.36499 15.8098C9.57131 15.8476 9.78212 15.873 9.99991 15.873C10.5713 15.873 11.111 15.7365 11.5872 15.4923C12.7174 14.9146 13.492 13.7399 13.492 12.3841V11.1111L12.5396 10.1588Z" fill="#D3B1A9"/>
<path d="M11.9049 7.93653V6.66669H10.635V8.57145C11.5111 8.57145 12.2223 8.96518 12.2223 9.84129V10.3077C12.4235 10.2217 12.5398 10.1588 12.5398 10.1588L13.4922 11.1111V9.52383C13.4922 8.64771 12.781 7.93653 11.9049 7.93653Z" fill="#844747"/>
<path d="M17.6189 7.93652C18.8485 7.93652 19.8412 8.9337 19.8412 10.1587C19.8412 11.3883 18.8485 12.381 17.6189 12.381C16.3936 12.381 15.3967 11.3883 15.3967 10.1587C15.3967 8.9337 16.3936 7.93652 17.6189 7.93652Z" fill="#ED5565"/>
<path d="M17.6192 7.93652C17.3989 7.93652 17.1862 7.96985 16.9849 8.02984C17.9036 8.30343 18.5715 9.15397 18.5715 10.1587C18.5715 11.1672 17.9036 12.0153 16.9849 12.288C17.1862 12.348 17.3989 12.381 17.6192 12.381C18.8487 12.381 19.8414 11.3883 19.8414 10.1587C19.8414 8.9337 18.8487 7.93652 17.6192 7.93652Z" fill="#DA4453"/>
<path d="M15.6128 2.32373C16.8385 2.32373 17.8351 3.31967 17.8351 4.54595C17.8351 5.77549 16.8385 6.76817 15.6128 6.77143C14.9976 6.77143 14.4421 6.52341 14.0426 6.11961C13.6388 5.71612 13.3906 5.16057 13.3906 4.54595C13.3906 3.31967 14.387 2.32373 15.6128 2.32373Z" fill="#ED5565"/>
<path d="M15.6129 2.32373C15.3921 2.32373 15.1794 2.35706 14.9779 2.41751C15.895 2.69079 16.5652 3.54025 16.5652 4.54595C16.5652 5.55553 15.8931 6.40406 14.9744 6.6778C15.1767 6.73779 15.3906 6.77143 15.6129 6.77143C16.8385 6.76817 17.8351 5.77549 17.8351 4.54595C17.8351 3.31967 16.8385 2.32373 15.6129 2.32373Z" fill="#DA4453"/>
<path d="M10.0001 0C11.2296 0 12.2223 0.997179 12.2223 2.22222C12.2223 3.44789 11.2254 4.44444 10.0001 4.44444C8.7747 4.44444 7.77783 3.44789 7.77783 2.22222C7.77783 0.997179 8.7747 0 10.0001 0Z" fill="#ED5565"/>
<path d="M9.99991 0C9.77964 0 9.56697 0.0333271 9.36561 0.093316C10.2844 0.366909 10.9523 1.21745 10.9523 2.22222C10.9523 3.22731 10.2819 4.07707 9.36499 4.35082C9.5665 4.41081 9.77933 4.44444 9.99991 4.44444C11.2253 4.44444 12.2221 3.44789 12.2221 2.22222C12.2221 0.997179 11.2294 0 9.99991 0Z" fill="#DA4453"/>
<path d="M2.38091 7.93652C3.60627 7.93652 4.60314 8.9337 4.60314 10.1587C4.60314 11.3883 3.60627 12.381 2.38091 12.381C1.15556 12.381 0.158691 11.3883 0.158691 10.1587C0.158691 8.9337 1.15556 7.93652 2.38091 7.93652Z" fill="#ED5565"/>
<path d="M2.38101 7.93652C2.16044 7.93652 1.94761 7.96985 1.74609 8.03015C2.66298 8.30421 3.3334 9.15428 3.3334 10.1587C3.3334 11.1669 2.66298 12.0147 1.74609 12.2877C1.94761 12.348 2.16044 12.381 2.38101 12.381C3.60637 12.381 4.60324 11.3883 4.60324 10.1587C4.60324 8.9337 3.60637 7.93652 2.38101 7.93652Z" fill="#DA4453"/>
<path d="M4.38728 2.3222C5.61744 2.3222 6.61121 3.31876 6.61121 4.54598C6.61121 5.77722 5.61744 6.7699 4.38728 6.7699C3.16006 6.7699 2.16288 5.77722 2.16676 4.54598C2.16676 3.31876 3.16006 2.3222 4.38728 2.3222Z" fill="#ED5565"/>
<path d="M4.38723 2.3222C4.16665 2.3222 3.95429 2.35522 3.75293 2.41552C4.67229 2.68896 5.34132 3.53934 5.34132 4.54598C5.34132 5.55587 4.67229 6.40439 3.75293 6.6769C3.95429 6.73658 4.16696 6.7699 4.38723 6.7699C5.61739 6.7699 6.61116 5.77722 6.61116 4.54598C6.61116 3.31876 5.61739 2.3222 4.38723 2.3222Z" fill="#DA4453"/>
<path d="M10.0094 18.7302C9.83397 18.7302 9.69043 18.5884 9.69043 18.4127C9.69043 18.2371 9.83071 18.0953 10.006 18.0953H10.0094C10.1848 18.0953 10.3269 18.2371 10.3269 18.4127C10.3269 18.5884 10.1848 18.7302 10.0094 18.7302Z" fill="#F5F7FA"/>
<path d="M2.3903 11.4277C2.21483 11.4277 2.07129 11.2857 2.07129 11.1102C2.07129 10.9346 2.21157 10.7928 2.38689 10.7928H2.3903C2.56562 10.7928 2.70776 10.9346 2.70776 11.1102C2.70776 11.2857 2.56562 11.4277 2.3903 11.4277Z" fill="#F5F7FA"/>
<path d="M2.38094 10.4759C2.20531 10.4759 2.06348 10.3339 2.06348 10.1585V9.20546C2.06348 9.02983 2.20531 8.888 2.38094 8.888C2.55656 8.888 2.6984 9.02983 2.6984 9.20546V10.1585C2.6984 10.3339 2.55656 10.4759 2.38094 10.4759Z" fill="#F5F7FA"/>
<path d="M17.6288 11.4283C17.4534 11.4283 17.3098 11.2863 17.3098 11.1109C17.3098 10.9352 17.4501 10.7934 17.6254 10.7934H17.6288C17.8041 10.7934 17.9463 10.9352 17.9463 11.1109C17.9463 11.2863 17.8041 11.4283 17.6288 11.4283Z" fill="#F5F7FA"/>
<path d="M17.6193 10.4762C17.4441 10.4762 17.3018 10.3344 17.3018 10.1588L17.3015 9.20607C17.3015 9.03075 17.4433 8.88861 17.619 8.88861C17.7941 8.88861 17.9364 9.03044 17.9364 9.20607L17.9367 10.1588C17.9367 10.3339 17.7949 10.4762 17.6193 10.4762Z" fill="#F5F7FA"/>
<path d="M15.6222 5.81613C15.4468 5.81613 15.3032 5.6743 15.3032 5.49867C15.3032 5.3232 15.4435 5.18121 15.6188 5.18121H15.6222C15.7975 5.18121 15.9397 5.3232 15.9397 5.49867C15.9397 5.6743 15.7975 5.81613 15.6222 5.81613Z" fill="#F5F7FA"/>
<path d="M15.6128 4.8641C15.4374 4.8641 15.2953 4.72227 15.2953 4.54711L15.2947 3.59426C15.2947 3.41879 15.4365 3.27649 15.6117 3.27649H15.6121C15.7873 3.27649 15.9296 3.41848 15.9296 3.59364L15.9302 4.54633C15.9302 4.72196 15.7879 4.8641 15.6128 4.8641Z" fill="#F5F7FA"/>
<path d="M10.0103 3.49088C9.8347 3.49088 9.69116 3.34889 9.69116 3.17342C9.69116 2.99779 9.8316 2.85596 10.0068 2.85596H10.0103C10.1855 2.85596 10.3278 2.99779 10.3278 3.17342C10.3278 3.34889 10.1855 3.49088 10.0103 3.49088Z" fill="#F5F7FA"/>
<path d="M10.0001 2.53909C9.82445 2.53909 9.68262 2.3971 9.68262 2.22163V1.26863C9.68262 1.09301 9.82445 0.951172 10.0001 0.951172C10.1757 0.951172 10.3175 1.09301 10.3175 1.26863V2.22163C10.3175 2.3971 10.1757 2.53909 10.0001 2.53909Z" fill="#F5F7FA"/>
<path d="M4.3986 5.81491C4.22313 5.81491 4.07959 5.67308 4.07959 5.49745C4.07959 5.32198 4.21987 5.17999 4.39519 5.17999H4.3986C4.57392 5.17999 4.71606 5.32198 4.71606 5.49745C4.71606 5.67308 4.57392 5.81491 4.3986 5.81491Z" fill="#F5F7FA"/>
<path d="M4.38826 4.86319C4.21263 4.86319 4.0708 4.72135 4.0708 4.54573V3.59303C4.0708 3.41756 4.21263 3.27557 4.38826 3.27557C4.56373 3.27557 4.70572 3.41756 4.70572 3.59303V4.54573C4.70572 4.72135 4.56373 4.86319 4.38826 4.86319Z" fill="#F5F7FA"/>
</g>
<defs>
<clipPath id="clip0">
<rect width="20" height="20" fill="white"/>
</clipPath>
</defs>
</svg>
