<svg width="414" height="373" viewBox="0 0 414 373" fill="none" xmlns="http://www.w3.org/2000/svg">
<g clip-path="url(#clip0)">
<path d="M1714 161C1698 164.5 1598.94 283.03 1531.5 244C1414 176 1409 215.5 1251.5 293.5C1094 371.5 987 157.5 843.5 199.5C700 241.5 599.365 67.5473 390.5 145.5C215 211 323.375 140.594 206.499 87.9998C36.4985 11.4998 -21.5015 116 -64.5015 145.5C-168.091 216.567 -6.49902 373 -6.49902 373H1649.5L1714 161Z" fill="#E6C5F4" fill-opacity="0.8"/>
<path d="M-46.5831 146C146.916 126.068 171 -23.5 297 3.50002C423 30.5 313.417 362 467.917 245C622.417 128 752.5 82.5 797 221.5C841.5 360.5 998 292.5 1131.5 221.5C1265 150.5 1300.57 321.908 1477 305C1597 293.5 1653.5 145 1827 269.5C1902.75 323.854 1646.12 390.526 1646.12 390.526H-9.87979C-9.87979 390.526 -240.083 165.932 -46.5831 146Z" fill="#F5E1FD"/>
</g>
<defs>
<clipPath id="clip0">
<rect width="414" height="373" fill="white"/>
</clipPath>
</defs>
</svg>
