<svg width="28" height="28" viewBox="0 0 28 28" fill="none" xmlns="http://www.w3.org/2000/svg">
<g clip-path="url(#clip0)">
<path d="M27.3381 15.9282C27.0518 15.8566 26.7656 15.9282 26.5151 16.1071C25.5847 16.8943 24.5113 17.5384 23.3304 17.9678C22.2212 18.3972 21.0045 18.6119 19.7164 18.6119C16.8179 18.6119 14.17 17.4311 12.2735 15.5346C10.377 13.6381 9.1962 10.9901 9.1962 8.09174C9.1962 6.87512 9.41089 5.69428 9.76872 4.6208C10.1623 3.47575 10.7349 2.43804 11.4863 1.54347C11.8083 1.14986 11.7368 0.577334 11.3432 0.255289C11.0927 0.0763744 10.8064 0.0048087 10.5202 0.0763744C7.47862 0.89938 4.83069 2.72431 2.93419 5.15754C1.10927 7.55499 0 10.525 0 13.7812C0 17.6815 1.57445 21.224 4.15081 23.8004C6.72718 26.3768 10.2697 27.9512 14.17 27.9512C17.462 27.9512 20.5036 26.8062 22.9368 24.9097C25.4058 22.9774 27.195 20.2221 27.9464 17.0732C28.1253 16.5365 27.8391 16.0355 27.3381 15.9282ZM21.8633 23.4068C19.7879 25.0528 17.14 26.0547 14.2416 26.0547C10.8422 26.0547 7.76488 24.6592 5.54634 22.4407C3.32781 20.2221 1.93227 17.1448 1.93227 13.7454C1.93227 10.9186 2.86263 8.34222 4.47286 6.26681C5.58213 4.83549 6.88977 3.32301 8.5 2.5C7.5 2 7.14313 2.40226 7 2.83165C6.53482 4.11984 1.93227 7.56869 1.93227 9C-1.06773 9 3.32781 21.1883 5.54634 23.4068C7.76488 25.6253 13.6006 26.5 17 26.5C18.5029 26.5 25.9897 24.0488 25.5 20.7699C25.9652 20.591 27.145 20.3514 26.5151 19.5C25.6563 21.146 23.3304 22.2617 21.8633 23.4068Z" fill="#F6F7FB"/>
</g>
<defs>
<clipPath id="clip0">
<rect width="28" height="28" fill="white"/>
</clipPath>
</defs>
</svg>
