<svg width="414" height="180" viewBox="0 0 414 180" fill="none" xmlns="http://www.w3.org/2000/svg">
<g clip-path="url(#clip0)">
<path d="M886 -32.0001C870 -28.5001 770.942 90.0302 703.5 50.9999C586 -17.0001 581.001 22.5003 423.501 100.5C266.001 178.5 159 -35.5001 15.5 6.49994C-128 48.4999 -228.635 -125.453 -437.5 -47.5002C-613 17.9998 -504.625 -52.4059 -621.501 -105C-791.501 -181.5 -849.501 -77.0002 -892.501 -47.5002C-996.091 23.5668 -834.499 180 -834.499 180H821.501L886 -32.0001Z" fill="#E6C5F4" fill-opacity="0.8"/>
<path d="M-874.583 -47.0001C-681.084 -66.9321 -657 -216.5 -531 -189.5C-405 -162.5 -514.583 169 -360.083 52C-205.583 -65 -75.5 -110.5 -31 28.5C13.5 167.5 170 99.5001 303.5 28.5C437 -42.5002 472.571 128.908 649 112C769 100.5 825.5 -48.0002 999 76.4998C1074.75 130.854 818.12 197.526 818.12 197.526H-837.88C-837.88 197.526 -1068.08 -27.0681 -874.583 -47.0001Z" fill="#F5E1FD"/>
</g>
<defs>
<clipPath id="clip0">
<rect width="414" height="180" fill="white"/>
</clipPath>
</defs>
</svg>
