<svg width="32" height="32" viewBox="0 0 32 32" fill="none" xmlns="http://www.w3.org/2000/svg">
<path d="M15.8839 17.2425C15.917 17.2425 15.9501 17.2425 15.9899 17.2425C16.0032 17.2425 16.0164 17.2425 16.0297 17.2425C16.0495 17.2425 16.0761 17.2425 16.0959 17.2425C18.0375 17.2094 19.608 16.5268 20.7677 15.2214C23.319 12.3454 22.8949 7.4152 22.8485 6.94471C22.6828 3.41272 21.0129 1.72292 19.6346 0.934355C18.6074 0.344585 17.408 0.0265065 16.0694 0H16.023C16.0164 0 16.0032 0 15.9965 0H15.9568C15.2212 0 13.7766 0.119279 12.3916 0.907848C11.0001 1.69642 9.30364 3.38621 9.13797 6.94471C9.09158 7.4152 8.66748 12.3454 11.2187 15.2214C12.3718 16.5268 13.9423 17.2094 15.8839 17.2425ZM10.9073 7.11038C10.9073 7.0905 10.9139 7.07062 10.9139 7.05736C11.1326 2.30607 14.5055 1.79582 15.9501 1.79582H15.9767C15.9899 1.79582 16.0098 1.79582 16.0297 1.79582C17.8189 1.83558 20.8605 2.56451 21.0659 7.05736C21.0659 7.07724 21.0659 7.09712 21.0725 7.11038C21.0792 7.15676 21.543 11.6629 19.4358 14.0352C18.6008 14.9762 17.4875 15.4401 16.023 15.4533C16.0098 15.4533 16.0032 15.4533 15.9899 15.4533C15.9767 15.4533 15.97 15.4533 15.9568 15.4533C14.4989 15.4401 13.379 14.9762 12.5507 14.0352C10.45 11.6761 10.9007 7.15014 10.9073 7.11038Z" fill="#888691"/>
<path d="M29.6078 25.4197C29.6078 25.4131 29.6078 25.4065 29.6078 25.3999C29.6078 25.3468 29.6011 25.2938 29.6011 25.2342C29.5614 23.9221 29.4752 20.854 26.5993 19.8733C26.5794 19.8666 26.5529 19.86 26.533 19.8534C23.5444 19.0913 21.0594 17.3684 21.0329 17.3485C20.6287 17.0636 20.072 17.163 19.7871 17.5672C19.5021 17.9714 19.6015 18.528 20.0058 18.813C20.1184 18.8925 22.7558 20.7281 26.0559 21.5763C27.5999 22.1263 27.7722 23.7763 27.8186 25.2872C27.8186 25.3469 27.8186 25.3999 27.8252 25.4529C27.8318 26.0493 27.7921 26.9704 27.686 27.5005C26.6125 28.1102 22.4046 30.2174 16.0033 30.2174C9.62847 30.2174 5.39405 28.1035 4.31391 27.4939C4.20788 26.9637 4.16149 26.0426 4.17475 25.4462C4.17475 25.3932 4.18137 25.3402 4.18137 25.2806C4.22776 23.7697 4.40005 22.1197 5.94406 21.5697C9.24412 20.7215 11.8815 18.8793 11.9942 18.8064C12.3984 18.5214 12.4978 17.9648 12.2129 17.5606C11.9279 17.1563 11.3713 17.0569 10.967 17.3419C10.9405 17.3618 8.46881 19.0847 5.46694 19.8467C5.44043 19.8534 5.42056 19.86 5.40068 19.8666C2.52472 20.854 2.43857 23.9221 2.39881 25.2276C2.39881 25.2872 2.39881 25.3402 2.39218 25.3932C2.39218 25.3999 2.39218 25.4065 2.39218 25.4131C2.38556 25.7577 2.37893 27.527 2.73014 28.415C2.79641 28.5873 2.91569 28.7331 3.07473 28.8325C3.27353 28.965 8.03807 32 16.0099 32C23.9818 32 28.7463 28.9584 28.9451 28.8325C29.0975 28.7331 29.2234 28.5873 29.2897 28.415C29.621 27.5336 29.6144 25.7643 29.6078 25.4197Z" fill="#888691"/>
</svg>
