<?xml version="1.0" encoding="iso-8859-1"?>
<!-- Generator: Adobe Illustrator 19.0.0, SVG Export Plug-In . SVG Version: 6.00 Build 0)  -->
<svg version="1.1" id="Layer_1" xmlns="http://www.w3.org/2000/svg" xmlns:xlink="http://www.w3.org/1999/xlink" x="0px" y="0px"
	 viewBox="0 0 512.001 512.001" style="enable-background:new 0 0 512.001 512.001;" xml:space="preserve">
<g>
	<g>
		<circle cx="308.894" cy="440.11" r="9.367"/>
	</g>
</g>
<g>
	<g>
		<path d="M292.782,275.872c-5.183,0-9.367,4.184-9.367,9.367c0,5.171,4.184,9.367,9.367,9.367c5.171,0,9.367-4.197,9.367-9.367
			C302.149,280.056,297.953,275.872,292.782,275.872z"/>
	</g>
</g>
<g>
	<g>
		<path d="M246.745,242.262c-5.183,0-9.367,4.184-9.367,9.367c0,5.171,4.184,9.367,9.367,9.367c5.171,0,9.367-4.197,9.367-9.367
			C256.112,246.446,251.916,242.262,246.745,242.262z"/>
	</g>
</g>
<g>
	<g>
		<circle cx="194.888" cy="397.82" r="9.367"/>
	</g>
</g>
<g>
	<g>
		<path d="M485.651,49.219c-16.991-16.992-39.582-26.349-63.613-26.349s-46.623,9.357-63.613,26.349l-78.685,78.685l-0.001,0.001
			l-23.739,23.749l-41.036-41.037c-3.658-3.658-9.59-3.658-13.247,0c-3.658,3.658-3.658,9.588,0,13.247l41.037,41.038
			L142.021,265.634L39.597,163.199c-13.454-13.453-20.863-31.34-20.863-50.367c0-19.027,7.409-36.913,20.863-50.367
			C53.05,49.012,70.934,41.604,89.957,41.604c19.022,0,36.907,7.409,50.361,20.861l29.553,29.553c3.658,3.658,9.59,3.658,13.247,0
			c3.658-3.658,3.658-9.59,0-13.247l-29.553-29.553c-16.991-16.992-39.581-26.349-63.607-26.349S43.34,32.226,26.349,49.219
			C9.358,66.209,0,88.802,0,112.832c0,24.03,9.358,46.622,26.349,63.613l109.047,109.059c1.757,1.757,4.139,2.744,6.625,2.744
			c2.485,0,4.867-0.987,6.623-2.744L256,178.149l107.345,107.356c1.757,1.757,4.139,2.744,6.625,2.744s4.867-0.987,6.623-2.744
			l109.06-109.059c16.991-16.991,26.349-39.583,26.349-63.613C512,88.802,502.643,66.209,485.651,49.219z M369.969,265.634
			L269.247,164.9l17.118-17.126l100.731,100.733L369.969,265.634z M472.404,163.199l-72.061,72.061L299.61,134.526l72.061-72.061
			c13.453-13.453,31.34-20.861,50.367-20.861c19.027,0,36.913,7.409,50.367,20.861c13.453,13.453,20.863,31.34,20.863,50.367
			C493.266,131.859,485.857,149.746,472.404,163.199z"/>
	</g>
</g>
<g>
	<g>
		<path d="M221.216,297.266c-19.152,0-34.734,15.587-34.734,34.746c0,19.152,15.582,34.734,34.734,34.734
			c19.159,0,34.746-15.581,34.746-34.734C255.963,312.853,240.375,297.266,221.216,297.266z M221.216,348.012
			c-8.821,0-15.999-7.178-15.999-15.999c0-8.829,7.178-16.012,15.999-16.012c8.829,0,16.012,7.183,16.012,16.012
			C237.228,340.834,230.045,348.012,221.216,348.012z"/>
	</g>
</g>
<g>
	<g>
		<path d="M319.223,332.087c-19.152,0-34.734,15.587-34.734,34.746c0,19.152,15.582,34.734,34.734,34.734
			c19.159,0,34.746-15.582,34.746-34.734C353.969,347.674,338.382,332.087,319.223,332.087z M319.223,382.833
			c-8.821,0-15.999-7.178-15.999-15.999c0-8.829,7.178-16.012,15.999-16.012c8.829,0,16.012,7.183,16.012,16.012
			C335.234,375.656,328.051,382.833,319.223,382.833z"/>
	</g>
</g>
<g>
	<g>
		<path d="M225.7,419.652c-19.159,0-34.746,15.582-34.746,34.734c0,19.159,15.587,34.746,34.746,34.746
			c19.152,0,34.734-15.587,34.734-34.746C260.434,435.234,244.853,419.652,225.7,419.652z M225.7,470.398
			c-8.829,0-16.012-7.183-16.012-16.012c0-8.821,7.183-15.999,16.012-15.999c8.821,0,15.999,7.178,15.999,15.999
			C241.699,463.215,234.522,470.398,225.7,470.398z"/>
	</g>
</g>
<g>
</g>
<g>
</g>
<g>
</g>
<g>
</g>
<g>
</g>
<g>
</g>
<g>
</g>
<g>
</g>
<g>
</g>
<g>
</g>
<g>
</g>
<g>
</g>
<g>
</g>
<g>
</g>
<g>
</g>
</svg>
