<svg width="32" height="32" viewBox="0 0 32 32" fill="none" xmlns="http://www.w3.org/2000/svg">
<path d="M32.007 16.0004C32.007 17.5471 30.7535 18.8005 29.206 18.8005H18.8072V29.1999C18.8072 30.747 17.5533 32.0004 16.0068 32C15.2334 32 14.5334 31.6871 14.0271 31.1805C13.5202 30.6733 13.2069 29.9736 13.2072 29.2006L13.2068 18.8001H2.8067C2.03381 18.8001 1.33435 18.4872 0.827032 17.9798C0.320968 17.4738 0.0078126 16.7738 0.0078126 16.0004C0.0073946 14.454 1.26085 13.2002 2.80817 13.2002H13.2072V2.80077C13.2072 1.25387 14.4614 0 16.008 0C17.554 0.000418005 18.8071 1.25304 18.8079 2.79973V13.2002H29.208C30.7544 13.2011 32.0062 14.454 32.007 16.0004Z" fill="#C9C8CD" fill-opacity="0.4"/>
</svg>
