<svg width="414" height="164" viewBox="0 0 414 164" fill="none" xmlns="http://www.w3.org/2000/svg">
<g clip-path="url(#clip0)">
<path d="M472 -48.0001C456 -44.5001 356.942 74.0302 289.5 34.9999C172 -33.0001 167.001 6.50031 9.50085 84.5002C-147.999 162.5 -255 -51.5001 -398.5 -9.50006C-542 32.4999 -642.635 -141.453 -851.5 -63.5002C-1027 1.9998 -918.625 -68.4059 -1035.5 -121C-1205.5 -197.5 -1263.5 -93.0002 -1306.5 -63.5002C-1410.09 7.5668 -1248.5 164 -1248.5 164H407.501L472 -48.0001Z" fill="#F2AFD0" fill-opacity="0.8"/>
<path d="M-1288.58 -63.0001C-1095.08 -82.9321 -1071 -232.5 -945 -205.5C-819 -178.5 -928.583 153 -774.083 36C-619.583 -81 -489.5 -126.5 -445 12.5C-400.5 151.5 -244 83.5001 -110.5 12.5C23 -58.5002 58.5712 112.908 235 95.9998C355 84.4998 411.5 -64.0002 585 60.4998C660.747 114.854 404.12 181.526 404.12 181.526H-1251.88C-1251.88 181.526 -1482.08 -43.0681 -1288.58 -63.0001Z" fill="#FFCAE3"/>
</g>
<defs>
<clipPath id="clip0">
<rect width="414" height="164" fill="white"/>
</clipPath>
</defs>
</svg>
