<svg width="14" height="14" viewBox="0 0 14 14" fill="none" xmlns="http://www.w3.org/2000/svg">
<path d="M11.5628 4.30333L12.1117 3.75443C12.325 3.54112 12.325 3.19527 12.1117 2.98207C11.8984 2.76877 11.5526 2.76877 11.3393 2.98207L10.7904 3.53098C9.86949 2.76364 8.75043 2.30008 7.5567 2.19156V1.09236H8.08467C8.38631 1.09236 8.6308 0.847763 8.6308 0.546127C8.6308 0.244492 8.38631 0 8.08467 0H5.93637C5.63474 0 5.39024 0.244492 5.39024 0.546127C5.39024 0.847763 5.63474 1.09236 5.93637 1.09236H6.46434V2.19156C3.47618 2.46329 1.09375 4.97357 1.09375 8.08318C1.09375 11.3533 3.74001 14 7.01057 14C10.2806 14 12.9273 11.3537 12.9273 8.08318C12.9273 6.68629 12.4462 5.36343 11.5628 4.30333ZM7.01047 12.9076C4.35033 12.9076 2.186 10.7434 2.186 8.08318C2.186 5.42303 4.35033 3.25882 7.01047 3.25882C9.67072 3.25882 11.8349 5.42303 11.8349 8.08318C11.8349 10.7434 9.67072 12.9076 7.01047 12.9076ZM9.54158 5.55217C9.75488 5.76547 9.75488 6.11133 9.54158 6.32452L7.3967 8.46941C7.1834 8.68271 6.83754 8.68271 6.62434 8.46941C6.41104 8.2561 6.41104 7.91025 6.62434 7.69705L8.76912 5.55217C8.98242 5.33887 9.32828 5.33887 9.54158 5.55217Z" fill="#888691"/>
</svg>
