<svg width="21" height="20" viewBox="0 0 21 20" fill="none" xmlns="http://www.w3.org/2000/svg">
<g clip-path="url(#clip0)">
<path d="M11.2029 0.251036C10.8515 -0.0836787 10.2364 -0.0836787 9.88494 0.251036C9.09414 1.08784 2.59204 8.61922 2.59204 12.4686C2.59204 16.6527 6.10667 20 10.5 20C14.8933 20 18.4079 16.6527 18.4079 12.4686C18.4079 8.61922 11.9059 1.08784 11.2029 0.251036Z" fill="#CCF2FE"/>
<path d="M17.4414 9.20505C16.1234 9.53976 15.9477 10.795 14.2783 10.795C12.3452 10.795 12.3452 9.12134 10.5 9.12134C8.65484 9.12134 8.56695 10.795 6.72176 10.795C5.05232 10.795 4.87657 9.53976 3.55858 9.20505C3.03139 10.2092 2.67993 11.2971 2.59204 12.4686C2.59204 12.7197 2.59204 13.0544 2.67989 13.3054C2.76775 13.3054 2.85564 13.3054 2.94349 13.3054C4.87653 13.3054 4.87653 14.9791 6.72172 14.9791C8.56691 14.9791 8.65476 13.3054 10.4999 13.3054C12.3451 13.3054 12.433 14.9791 14.2782 14.9791C16.1234 14.9791 16.2113 13.3054 18.0565 13.3054C18.1443 13.3054 18.2322 13.3054 18.3201 13.3054C18.3201 13.0544 18.4079 12.7197 18.4079 12.4686C18.3201 11.2971 17.9686 10.2092 17.4414 9.20505Z" fill="#B3ECFD"/>
<path d="M14.2782 14.9791C12.3452 14.9791 12.3452 13.3054 10.5 13.3054C8.65484 13.3054 8.56694 14.9791 6.72176 14.9791C4.87657 14.9791 4.78872 13.3054 2.94353 13.3054C2.85568 13.3054 2.76778 13.3054 2.67993 13.3054C3.20713 17.4058 7.07325 20.4184 11.4665 19.9163C15.1569 19.4979 17.9686 16.7364 18.4079 13.3054C18.3201 13.3054 18.2322 13.3054 18.1443 13.3054C16.2113 13.3054 16.2113 14.9791 14.2782 14.9791Z" fill="url(#paint0_linear)"/>
</g>
<defs>
<linearGradient id="paint0_linear" x1="5.97203" y1="18.8056" x2="14.5993" y2="9.74789" gradientUnits="userSpaceOnUse">
<stop stop-color="#34CDFA"/>
<stop offset="1" stop-color="#E8D9F1"/>
</linearGradient>
<clipPath id="clip0">
<rect width="21" height="20" fill="white"/>
</clipPath>
</defs>
</svg>
